<svg width="131" height="32" viewBox="0 0 131 32" fill="none" xmlns="http://www.w3.org/2000/svg">
<path d="M38.2783 22.5H42.416L43.1118 19.8374H47.1196L47.8154 22.5H51.9531L47.5835 9.11279H42.6479L38.2783 22.5ZM45.0786 12.3042H45.1528L46.396 17.0635H43.8354L45.0786 12.3042ZM52.9458 22.5H56.7495V16.748C56.7495 15.7925 57.2969 15.0967 58.1968 15.0967C59.1523 15.0967 59.6348 15.7275 59.6348 16.7573V22.5H63.4385V15.9224C63.4385 13.4639 62.1768 12.0352 59.9224 12.0352C58.373 12.0352 57.3247 12.7773 56.8237 14.1597H56.7495V12.2578H52.9458V22.5ZM64.2085 22.5H68.1143L69.5244 19.2808H69.5986L71.0645 22.5H75.165L72.2056 17.3418L75.165 12.2578H71.0737L69.8306 15.3657H69.7563L68.5039 12.2578H64.1992L67.1587 17.416L64.2085 22.5ZM77.874 11.3394C78.9409 11.3394 79.7573 10.5137 79.7573 9.53027C79.7573 8.54688 78.9409 7.72119 77.874 7.72119C76.8071 7.72119 75.9907 8.54688 75.9907 9.53027C75.9907 10.5137 76.8071 11.3394 77.874 11.3394ZM75.9722 22.5H79.7759V12.2578H75.9722V22.5ZM86.2886 22.7227C89.8511 22.7227 91.02 20.6353 91.3262 19.2993L91.354 19.1787H87.9678L87.9585 19.2065C87.8564 19.5034 87.3647 20.1064 86.3628 20.1064C85.3237 20.1064 84.6929 19.4106 84.6558 18.2324H91.4004V17.1562C91.4004 14.0391 89.3594 12.0352 86.168 12.0352C82.9673 12.0352 80.9448 14.0391 80.9448 17.3696V17.3789C80.9448 20.7095 82.9673 22.7227 86.2886 22.7227ZM86.27 14.6514C87.0957 14.6514 87.6709 15.1709 87.8379 16.0801H84.7021C84.8691 15.1709 85.4443 14.6514 86.27 14.6514ZM97.3286 22.7227C98.1357 22.7227 98.6738 22.6577 99.082 22.5835V19.9302C98.8779 19.958 98.7202 19.9766 98.4326 19.9766C97.6533 19.9766 97.2822 19.6426 97.2822 18.8169V15.0039H99.082V12.2578H97.2822V10.0127H93.4785V12.2578H92.124V15.0039H93.4785V19.4014C93.4785 21.8135 94.6753 22.7227 97.3286 22.7227ZM100.752 22.5H102.366V9.11279H100.752V22.5ZM108.517 22.6855C110.623 22.6855 112.2 21.4238 112.516 19.8281L112.534 19.7354H110.948L110.92 19.8188C110.642 20.6445 109.779 21.2568 108.554 21.2568C106.838 21.2568 105.743 20.0972 105.706 18.1118H112.655V17.5181C112.655 14.6235 111.05 12.666 108.415 12.666C105.78 12.666 104.073 14.7163 104.073 17.7036V17.7129C104.073 20.7466 105.743 22.6855 108.517 22.6855ZM108.406 14.0947C109.816 14.0947 110.855 14.9761 111.013 16.8501H105.734C105.91 15.0503 107.005 14.0947 108.406 14.0947ZM117.711 22.6855C119.863 22.6855 121.459 21.498 121.459 19.8096V19.8003C121.459 18.4272 120.754 17.6572 118.806 17.1841L117.275 16.813C116.208 16.5532 115.772 16.0986 115.772 15.4399V15.4307C115.772 14.5771 116.496 14.0112 117.665 14.0112C118.861 14.0112 119.576 14.6328 119.706 15.5698L119.715 15.6348H121.255L121.246 15.5142C121.125 13.8999 119.78 12.666 117.665 12.666C115.577 12.666 114.121 13.8442 114.121 15.5049V15.5142C114.121 16.9058 115.002 17.75 116.82 18.186L118.351 18.5571C119.446 18.8262 119.808 19.2158 119.808 19.9116V19.9209C119.808 20.793 119.028 21.3403 117.72 21.3403C116.403 21.3403 115.688 20.7744 115.494 19.8096L115.475 19.7168H113.861L113.87 19.8003C114.065 21.5259 115.438 22.6855 117.711 22.6855ZM126.562 22.6855C128.714 22.6855 130.31 21.498 130.31 19.8096V19.8003C130.31 18.4272 129.604 17.6572 127.656 17.1841L126.125 16.813C125.059 16.5532 124.623 16.0986 124.623 15.4399V15.4307C124.623 14.5771 125.346 14.0112 126.515 14.0112C127.712 14.0112 128.426 14.6328 128.556 15.5698L128.565 15.6348H130.105L130.096 15.5142C129.976 13.8999 128.63 12.666 126.515 12.666C124.428 12.666 122.971 13.8442 122.971 15.5049V15.5142C122.971 16.9058 123.853 17.75 125.671 18.186L127.202 18.5571C128.296 18.8262 128.658 19.2158 128.658 19.9116V19.9209C128.658 20.793 127.879 21.3403 126.571 21.3403C125.253 21.3403 124.539 20.7744 124.344 19.8096L124.326 19.7168H122.711L122.721 19.8003C122.916 21.5259 124.289 22.6855 126.562 22.6855Z" fill="#39353C"/>
<circle cx="8" cy="19.875" r="8" fill="url(#paint0_linear)" fill-opacity="0.48"/>
<circle cx="22" cy="19.875" r="8" fill="url(#paint1_linear)" fill-opacity="0.48"/>
<circle cx="8" cy="12.125" r="8" fill="url(#paint2_linear)" fill-opacity="0.48"/>
<circle cx="22" cy="12.125" r="8" fill="url(#paint3_linear)" fill-opacity="0.48"/>
<circle cx="15" cy="24" r="8" fill="url(#paint4_linear)" fill-opacity="0.48"/>
<circle cx="15" cy="8" r="8" fill="url(#paint5_linear)" fill-opacity="0.48"/>
<defs>
<linearGradient id="paint0_linear" x1="0" y1="11.875" x2="16" y2="27.875" gradientUnits="userSpaceOnUse">
<stop stop-color="#F6BF44"/>
<stop offset="1" stop-color="#FD5F1F"/>
</linearGradient>
<linearGradient id="paint1_linear" x1="14" y1="11.875" x2="30" y2="27.875" gradientUnits="userSpaceOnUse">
<stop stop-color="#F6BF44"/>
<stop offset="1" stop-color="#FD5F1F"/>
</linearGradient>
<linearGradient id="paint2_linear" x1="0" y1="4.125" x2="16" y2="20.125" gradientUnits="userSpaceOnUse">
<stop stop-color="#F6BF44"/>
<stop offset="1" stop-color="#FD5F1F"/>
</linearGradient>
<linearGradient id="paint3_linear" x1="14" y1="4.125" x2="30" y2="20.125" gradientUnits="userSpaceOnUse">
<stop stop-color="#F6BF44"/>
<stop offset="1" stop-color="#FD5F1F"/>
</linearGradient>
<linearGradient id="paint4_linear" x1="7" y1="16" x2="23" y2="32" gradientUnits="userSpaceOnUse">
<stop stop-color="#F6BF44"/>
<stop offset="1" stop-color="#FD5F1F"/>
</linearGradient>
<linearGradient id="paint5_linear" x1="7" y1="0" x2="23" y2="16" gradientUnits="userSpaceOnUse">
<stop stop-color="#F6BF44"/>
<stop offset="1" stop-color="#FD5F1F"/>
</linearGradient>
</defs>
</svg>
