<svg width="24" height="25" viewBox="0 0 24 25" fill="none" xmlns="http://www.w3.org/2000/svg">
<path d="M16.59 8.0424L10 14.6324L6.41 11.0524L5 12.4624L10 17.4624L18 9.4624L16.59 8.0424ZM12 2.4624C6.48 2.4624 2 6.9424 2 12.4624C2 17.9824 6.48 22.4624 12 22.4624C17.52 22.4624 22 17.9824 22 12.4624C22 6.9424 17.52 2.4624 12 2.4624ZM12 20.4624C7.58 20.4624 4 16.8824 4 12.4624C4 8.0424 7.58 4.4624 12 4.4624C16.42 4.4624 20 8.0424 20 12.4624C20 16.8824 16.42 20.4624 12 20.4624Z" fill="#129C4A"/>
</svg>
