<?xml version="1.0" standalone="no"?>
<!DOCTYPE svg PUBLIC "-//W3C//DTD SVG 20010904//EN"
 "http://www.w3.org/TR/2001/REC-SVG-20010904/DTD/svg10.dtd">
<svg version="1.0" xmlns="http://www.w3.org/2000/svg"
 width="131" height="32" viewBox="0 0 310.000000 112.000000"
 preserveAspectRatio="xMidYMid meet">

<g transform="translate(0.000000,112.000000) scale(0.100000,-0.100000)"
fill="#000000" stroke="none">
<path d="M632 1044 c-28 -20 -30 -76 -3 -103 12 -12 18 -28 15 -43 l-5 -23 10
23 c6 12 19 22 29 22 10 0 28 10 40 23 59 63 -15 151 -86 101z"/>
<path d="M466 880 c-63 -25 -129 -89 -157 -154 -17 -41 -21 -64 -17 -126 5
-80 30 -135 86 -187 l26 -24 18 45 c18 46 18 46 -7 82 -50 74 -45 141 18 235
34 52 49 65 81 74 37 11 53 30 55 63 1 18 -46 14 -103 -8z"/>
<path d="M631 854 c0 -11 3 -14 6 -6 3 7 2 16 -1 19 -3 4 -6 -2 -5 -13z"/>
<path d="M701 828 c-16 -45 -14 -52 19 -105 17 -27 30 -61 30 -79 0 -17 6 -34
13 -37 6 -3 30 -13 51 -22 l39 -16 -5 65 c-6 70 -32 132 -76 179 -45 48 -59
51 -71 15z"/>
<path d="M611 784 c0 -11 3 -14 6 -6 3 7 2 16 -1 19 -3 4 -6 -2 -5 -13z"/>
<path d="M600 750 c0 -5 -12 -10 -26 -10 -20 0 -24 -3 -16 -13 7 -7 7 -18 2
-27 -7 -11 -11 -11 -24 -1 -13 11 -14 16 -4 29 10 12 4 11 -20 -4 -39 -22 -62
-60 -62 -104 0 -39 24 -86 51 -100 14 -8 18 -17 14 -33 -6 -21 -5 -21 7 -2 9
15 25 20 56 21 32 1 50 8 70 27 16 15 35 27 43 27 9 0 10 3 4 8 -6 4 -11 26
-12 49 0 45 -31 98 -63 108 -11 4 -17 12 -13 21 3 7 2 14 -1 14 -3 0 -6 -4 -6
-10z"/>
<path d="M778 524 c66 -31 72 -36 72 -64 0 -41 31 -70 75 -70 44 0 75 29 75
70 0 36 -39 80 -70 80 -23 0 -61 -17 -71 -32 -3 -5 -36 5 -73 22 -37 16 -71
30 -74 29 -4 0 26 -16 66 -35z"/>
<path d="M126 474 c-44 -43 5 -119 62 -98 24 9 35 4 98 -44 65 -50 71 -57 64
-81 -9 -33 2 -64 32 -85 32 -23 65 -20 93 9 31 30 32 73 4 109 l-21 27 26 71
c15 39 25 72 23 75 -2 2 -16 -30 -32 -72 -20 -56 -32 -75 -46 -75 -10 0 -29
-5 -43 -11 -22 -10 -31 -6 -94 42 -63 48 -70 57 -65 82 11 54 -62 91 -101 51z"/>
<path d="M655 459 c-16 -10 -42 -19 -57 -19 -22 0 -28 -7 -42 -47 -9 -26 -16
-48 -16 -50 0 -9 82 -1 121 12 43 15 119 68 119 84 0 9 -66 41 -83 40 -7 0
-25 -9 -42 -20z"/>
</g>
</svg>
