<?xml version="1.0" standalone="no"?>
<!DOCTYPE svg PUBLIC "-//W3C//DTD SVG 20010904//EN"
 "http://www.w3.org/TR/2001/REC-SVG-20010904/DTD/svg10.dtd">
<svg version="1.0" xmlns="http://www.w3.org/2000/svg"
 width="131" height="32" viewBox="0 0 340.000000 440.000000"
 preserveAspectRatio="xMidYMid meet">

<g transform="translate(0.000000,440.000000) scale(0.100000,-0.100000)"
fill="#000000" stroke="none">
<path d="M1960 4273 c-77 -39 -115 -102 -114 -187 0 -88 38 -152 118 -201 16
-10 -3 -88 -129 -522 l-15 -52 -63 6 c-80 7 -156 -14 -230 -64 -108 -74 -159
-171 -161 -308 -1 -71 3 -88 32 -150 37 -77 85 -133 148 -170 l42 -25 -53
-142 c-29 -79 -79 -215 -112 -303 l-60 -160 -49 -2 c-77 -3 -107 -11 -158 -43
l-47 -30 -215 171 c-187 149 -215 175 -209 193 14 41 17 116 5 150 -45 137
-227 172 -329 62 -13 -14 -29 -47 -37 -75 -43 -168 130 -302 283 -217 25 14
51 23 57 18 7 -4 105 -80 219 -170 l205 -164 -19 -41 c-40 -88 -19 -196 51
-268 44 -46 117 -79 175 -79 44 0 127 32 162 63 111 97 108 291 -6 374 -20 15
-40 30 -44 33 -6 5 206 607 216 616 1 1 28 -3 60 -9 70 -13 155 2 227 38 44
23 126 101 148 142 11 20 20 17 275 -96 l264 -116 -5 -67 c-4 -58 -1 -75 22
-122 72 -148 262 -181 384 -67 95 89 96 253 2 348 -92 94 -261 87 -349 -13
l-39 -44 -261 116 -261 117 7 36 c5 20 8 70 8 111 0 131 -69 243 -191 311 -30
17 -54 34 -54 38 0 8 133 473 151 528 7 21 15 30 24 27 8 -3 39 0 71 6 100 21
174 114 174 220 0 54 -47 140 -96 173 -32 22 -56 30 -105 34 -56 4 -71 1 -119
-24z m-234 -998 c12 -12 12 -15 2 -15 -8 0 -9 -3 -3 -8 14 -10 17 -32 4 -32
-5 0 -8 -4 -5 -8 18 -30 -69 -48 -97 -20 -16 16 -17 68 -3 85 15 17 85 16 102
-2z"/>
<path d="M1553 3794 c-169 -37 -322 -123 -445 -252 -159 -167 -237 -363 -238
-599 0 -173 49 -339 144 -482 50 -74 214 -238 226 -224 4 4 31 72 60 150 l52
142 -46 52 c-186 207 -179 543 16 755 21 23 39 45 39 48 -1 18 13 66 19 66 4
0 13 13 19 29 7 15 24 35 39 42 15 8 30 17 33 22 22 29 189 62 189 36 0 -6 7
-9 16 -7 12 2 27 37 50 118 18 63 34 116 34 118 1 8 -155 -2 -207 -14z"/>
<path d="M2170 3698 c0 -2 -18 -66 -40 -143 -22 -77 -40 -145 -40 -151 0 -6
24 -37 54 -69 54 -56 112 -155 135 -226 7 -20 15 -71 19 -114 l7 -77 140 -63
c77 -35 142 -62 144 -59 13 13 19 158 10 243 -22 199 -100 366 -242 512 -52
53 -187 159 -187 147z"/>
<path d="M2081 2500 c-54 -46 -156 -91 -249 -109 l-86 -17 -53 -134 c-28 -74
-52 -141 -52 -149 -1 -11 23 -13 132 -9 112 5 146 10 227 36 122 40 254 119
341 204 38 37 69 71 69 76 0 10 -262 132 -282 132 -7 -1 -28 -14 -47 -30z"/>
</g>
</svg>
