<svg width="72" height="72" viewBox="0 0 72 72" fill="none" xmlns="http://www.w3.org/2000/svg">
<path d="M72 36C72 55.8823 55.8823 72 36 72C16.1177 72 0 55.8823 0 36C0 16.1177 16.1177 0 36 0C55.8823 0 72 16.1177 72 36ZM3.96 36C3.96 53.6952 18.3048 68.04 36 68.04C53.6952 68.04 68.04 53.6952 68.04 36C68.04 18.3048 53.6952 3.96 36 3.96C18.3048 3.96 3.96 18.3048 3.96 36Z" fill="#F3F0EB"/>
<path d="M36 1.98C36 0.886476 36.8872 -0.00567777 37.9791 0.0544327C43.6103 0.364445 49.0999 1.994 54 4.82308C58.9001 7.65217 63.0562 11.5915 66.1402 16.3133C66.7382 17.2288 66.4092 18.4432 65.4622 18.99C64.5152 19.5368 63.3093 19.2083 62.7051 18.2969C59.9728 14.1752 56.318 10.734 52.02 8.25254C47.722 5.77108 42.9144 4.32654 37.9788 4.02115C36.8874 3.95362 36 3.07352 36 1.98Z" fill="#9767BD"/>
<path d="M30.3018 30.9331C30.3018 31.8647 30.0688 32.6865 29.603 33.3984C29.146 34.1104 28.5132 34.6816 27.7046 35.1123C28.6187 35.5605 29.3438 36.1758 29.8799 36.958C30.416 37.7314 30.6841 38.6499 30.6841 39.7134C30.6841 41.4272 30.0908 42.7808 28.9043 43.7739C27.7266 44.7671 26.1006 45.2637 24.0264 45.2637C21.9434 45.2637 20.2998 44.7671 19.0957 43.7739C17.8916 42.772 17.2896 41.4185 17.2896 39.7134C17.2896 38.6851 17.5532 37.7754 18.0806 36.9844C18.6079 36.1934 19.355 35.5693 20.3218 35.1123C19.5044 34.6816 18.8628 34.1104 18.397 33.3984C17.9312 32.6865 17.6982 31.8647 17.6982 30.9331C17.6982 29.2632 18.2651 27.9448 19.3989 26.978C20.5327 26.0112 22.062 25.5278 23.9868 25.5278C25.9292 25.5278 27.4673 26.0112 28.6011 26.978C29.7349 27.9448 30.3018 29.2632 30.3018 30.9331ZM26.228 39.3574C26.228 38.5664 26.0215 37.96 25.6084 37.5381C25.2041 37.1074 24.668 36.8921 24 36.8921C23.332 36.8921 22.7915 37.1074 22.3784 37.5381C21.9653 37.96 21.7588 38.5664 21.7588 39.3574C21.7588 40.1221 21.9653 40.7285 22.3784 41.1768C22.8003 41.6162 23.3496 41.8359 24.0264 41.8359C24.6855 41.8359 25.2173 41.6162 25.6216 41.1768C26.0259 40.7373 26.228 40.1309 26.228 39.3574ZM23.9868 28.9556C23.3892 28.9556 22.9321 29.1533 22.6157 29.5488C22.3081 29.9355 22.1543 30.4761 22.1543 31.1704C22.1543 31.856 22.3125 32.4097 22.6289 32.8315C22.9453 33.2534 23.4111 33.4644 24.0264 33.4644C24.6328 33.4644 25.0854 33.2534 25.3843 32.8315C25.6919 32.4097 25.8457 31.856 25.8457 31.1704C25.8457 30.4849 25.6875 29.9443 25.3711 29.5488C25.0635 29.1533 24.6021 28.9556 23.9868 28.9556Z" fill="#39353C"/>
<path d="M35.21 45.8545H34.123L38.2793 35.0469H39.3594L35.21 45.8545ZM47.1182 45H40.5967V44.0908L44.042 40.2627C44.5524 39.6839 44.9033 39.2145 45.0947 38.8545C45.2907 38.4899 45.3887 38.1139 45.3887 37.7266C45.3887 37.207 45.2314 36.7809 44.917 36.4482C44.6025 36.1156 44.1833 35.9492 43.6592 35.9492C43.0303 35.9492 42.5404 36.1292 42.1895 36.4893C41.8431 36.8447 41.6699 37.3415 41.6699 37.9795H40.4053C40.4053 37.0635 40.6992 36.3229 41.2871 35.7578C41.8796 35.1927 42.6702 34.9102 43.6592 34.9102C44.5843 34.9102 45.3158 35.154 45.8535 35.6416C46.3913 36.1247 46.6602 36.7695 46.6602 37.5762C46.6602 38.556 46.0358 39.7227 44.7871 41.0762L42.1211 43.9678H47.1182V45ZM52.6143 45H51.3428V36.5713L48.793 37.5078V36.3594L52.416 34.999H52.6143V45Z" fill="#39353C"/>
</svg>
