<svg width="72" height="72" viewBox="0 0 72 72" fill="none" xmlns="http://www.w3.org/2000/svg">
<path d="M72 36C72 55.8823 55.8823 72 36 72C16.1177 72 0 55.8823 0 36C0 16.1177 16.1177 0 36 0C55.8823 0 72 16.1177 72 36ZM3.96 36C3.96 53.6952 18.3048 68.04 36 68.04C53.6952 68.04 68.04 53.6952 68.04 36C68.04 18.3048 53.6952 3.96 36 3.96C18.3048 3.96 3.96 18.3048 3.96 36Z" fill="#F3F0EB"/>
<path d="M36 1.98C36 0.886476 36.8872 -0.00567785 37.979 0.0544343C42.8191 0.320901 47.5627 1.56263 51.9224 3.71258C56.8749 6.15488 61.1992 9.70373 64.5607 14.0846C67.9223 18.4655 70.231 23.5609 71.3083 28.9768C72.2566 33.7443 72.2283 38.6477 71.233 43.3918C71.0084 44.462 69.9171 45.0881 68.8608 44.805C67.8045 44.522 67.1841 43.4371 67.4013 42.3654C68.2438 38.2096 68.2542 33.921 67.4244 29.7493C66.4656 24.9292 64.4108 20.3943 61.419 16.4953C58.4273 12.5963 54.5786 9.43784 50.1709 7.2642C46.3561 5.38294 42.211 4.28303 37.9788 4.02116C36.8873 3.95362 36 3.07352 36 1.98Z" fill="#129C4A"/>
<path d="M19.3857 45H14.9297V30.8145L10.5527 32.0933V28.7183L18.9771 25.8047H19.3857V45ZM38.1196 30.9331C38.1196 31.8647 37.8867 32.6865 37.4209 33.3984C36.9639 34.1104 36.3311 34.6816 35.5225 35.1123C36.4365 35.5605 37.1616 36.1758 37.6978 36.958C38.2339 37.7314 38.502 38.6499 38.502 39.7134C38.502 41.4272 37.9087 42.7808 36.7222 43.7739C35.5444 44.7671 33.9185 45.2637 31.8442 45.2637C29.7612 45.2637 28.1177 44.7671 26.9136 43.7739C25.7095 42.772 25.1074 41.4185 25.1074 39.7134C25.1074 38.6851 25.3711 37.7754 25.8984 36.9844C26.4258 36.1934 27.1729 35.5693 28.1396 35.1123C27.3223 34.6816 26.6807 34.1104 26.2148 33.3984C25.749 32.6865 25.5161 31.8647 25.5161 30.9331C25.5161 29.2632 26.083 27.9448 27.2168 26.978C28.3506 26.0112 29.8799 25.5278 31.8047 25.5278C33.7471 25.5278 35.2852 26.0112 36.4189 26.978C37.5527 27.9448 38.1196 29.2632 38.1196 30.9331ZM34.0459 39.3574C34.0459 38.5664 33.8394 37.96 33.4263 37.5381C33.022 37.1074 32.4858 36.8921 31.8179 36.8921C31.1499 36.8921 30.6094 37.1074 30.1963 37.5381C29.7832 37.96 29.5767 38.5664 29.5767 39.3574C29.5767 40.1221 29.7832 40.7285 30.1963 41.1768C30.6182 41.6162 31.1675 41.8359 31.8442 41.8359C32.5034 41.8359 33.0352 41.6162 33.4395 41.1768C33.8438 40.7373 34.0459 40.1309 34.0459 39.3574ZM31.8047 28.9556C31.207 28.9556 30.75 29.1533 30.4336 29.5488C30.126 29.9355 29.9722 30.4761 29.9722 31.1704C29.9722 31.856 30.1304 32.4097 30.4468 32.8315C30.7632 33.2534 31.229 33.4644 31.8442 33.4644C32.4507 33.4644 32.9033 33.2534 33.2021 32.8315C33.5098 32.4097 33.6636 31.856 33.6636 31.1704C33.6636 30.4849 33.5054 29.9443 33.189 29.5488C32.8813 29.1533 32.4199 28.9556 31.8047 28.9556Z" fill="#39353C"/>
<path d="M42.21 45.8545H41.123L45.2793 35.0469H46.3594L42.21 45.8545ZM54.1182 45H47.5967V44.0908L51.042 40.2627C51.5524 39.6839 51.9033 39.2145 52.0947 38.8545C52.2907 38.4899 52.3887 38.1139 52.3887 37.7266C52.3887 37.207 52.2314 36.7809 51.917 36.4482C51.6025 36.1156 51.1833 35.9492 50.6592 35.9492C50.0303 35.9492 49.5404 36.1292 49.1895 36.4893C48.8431 36.8447 48.6699 37.3415 48.6699 37.9795H47.4053C47.4053 37.0635 47.6992 36.3229 48.2871 35.7578C48.8796 35.1927 49.6702 34.9102 50.6592 34.9102C51.5843 34.9102 52.3158 35.154 52.8535 35.6416C53.3913 36.1247 53.6602 36.7695 53.6602 37.5762C53.6602 38.556 53.0358 39.7227 51.7871 41.0762L49.1211 43.9678H54.1182V45ZM59.6143 45H58.3428V36.5713L55.793 37.5078V36.3594L59.416 34.999H59.6143V45Z" fill="#39353C"/>
</svg>
