<svg width="72" height="72" viewBox="0 0 72 72" fill="none" xmlns="http://www.w3.org/2000/svg">
<path d="M72 36C72 55.8823 55.8823 72 36 72C16.1177 72 0 55.8823 0 36C0 16.1177 16.1177 0 36 0C55.8823 0 72 16.1177 72 36ZM3.96 36C3.96 53.6952 18.3048 68.04 36 68.04C53.6952 68.04 68.04 53.6952 68.04 36C68.04 18.3048 53.6952 3.96 36 3.96C18.3048 3.96 3.96 18.3048 3.96 36Z" fill="#F3F0EB"/>
<path d="M36 1.98C36 0.886476 36.8872 -0.00567777 37.9791 0.0544327C43.6103 0.364445 49.0999 1.994 54 4.82308C58.9001 7.65217 63.0562 11.5915 66.1402 16.3133C66.7382 17.2288 66.4092 18.4432 65.4622 18.99C64.5152 19.5368 63.3093 19.2083 62.7051 18.2969C59.9728 14.1752 56.318 10.734 52.02 8.25254C47.722 5.77108 42.9144 4.32654 37.9788 4.02115C36.8874 3.95362 36 3.07352 36 1.98Z" fill="#2C71F0"/>
<path d="M19.3857 45H14.9297V30.8145L10.5527 32.0933V28.7183L18.9771 25.8047H19.3857V45ZM38.5679 45H25.1733V42.0996L31.3433 35.6133C32.8638 33.8818 33.624 32.5063 33.624 31.4868C33.624 30.6606 33.4438 30.0322 33.0835 29.6016C32.7231 29.1709 32.2002 28.9556 31.5146 28.9556C30.8379 28.9556 30.2886 29.2456 29.8667 29.8257C29.4448 30.397 29.2339 31.1133 29.2339 31.9746H24.7778C24.7778 30.7969 25.0723 29.7114 25.6611 28.7183C26.25 27.7163 27.0674 26.9341 28.1133 26.3716C29.1592 25.8091 30.3281 25.5278 31.6201 25.5278C33.6943 25.5278 35.2896 26.0068 36.4058 26.9648C37.5308 27.9229 38.0933 29.2983 38.0933 31.0913C38.0933 31.8472 37.9526 32.5854 37.6714 33.3062C37.3901 34.0181 36.9507 34.7695 36.353 35.5605C35.7642 36.3428 34.8105 37.3931 33.4922 38.7114L31.0137 41.5723H38.5679V45Z" fill="#39353C"/>
<path d="M43.21 45.8545H42.123L46.2793 35.0469H47.3594L43.21 45.8545ZM55.1182 45H48.5967V44.0908L52.042 40.2627C52.5524 39.6839 52.9033 39.2145 53.0947 38.8545C53.2907 38.4899 53.3887 38.1139 53.3887 37.7266C53.3887 37.207 53.2314 36.7809 52.917 36.4482C52.6025 36.1156 52.1833 35.9492 51.6592 35.9492C51.0303 35.9492 50.5404 36.1292 50.1895 36.4893C49.8431 36.8447 49.6699 37.3415 49.6699 37.9795H48.4053C48.4053 37.0635 48.6992 36.3229 49.2871 35.7578C49.8796 35.1927 50.6702 34.9102 51.6592 34.9102C52.5843 34.9102 53.3158 35.154 53.8535 35.6416C54.3913 36.1247 54.6602 36.7695 54.6602 37.5762C54.6602 38.556 54.0358 39.7227 52.7871 41.0762L50.1211 43.9678H55.1182V45ZM60.6143 45H59.3428V36.5713L56.793 37.5078V36.3594L60.416 34.999H60.6143V45Z" fill="#39353C"/>
</svg>
