<svg width="44" height="44" viewBox="0 0 44 44" fill="none" xmlns="http://www.w3.org/2000/svg">
<rect x="0.5" y="0.5" width="43" height="43" rx="21.5" fill="white"/>
<path d="M20.0859 20.5137H21.6387C22.8691 20.5137 23.4844 19.9115 23.4844 18.707C23.4844 18.2383 23.3379 17.8574 23.0449 17.5645C22.752 17.265 22.3385 17.1152 21.8047 17.1152C21.3685 17.1152 20.9876 17.2422 20.6621 17.4961C20.3431 17.75 20.1836 18.0658 20.1836 18.4434H16.8926C16.8926 17.6947 17.1009 17.0273 17.5176 16.4414C17.9342 15.8555 18.5104 15.3997 19.2461 15.0742C19.9883 14.7422 20.8021 14.5762 21.6875 14.5762C23.2695 14.5762 24.513 14.9375 25.418 15.6602C26.3229 16.3828 26.7754 17.3757 26.7754 18.6387C26.7754 19.2507 26.5866 19.8301 26.209 20.377C25.8379 20.9173 25.2943 21.3568 24.5781 21.6953C25.3333 21.9688 25.9258 22.3854 26.3555 22.9453C26.7852 23.4987 27 24.1855 27 25.0059C27 26.2754 26.5117 27.291 25.5352 28.0527C24.5586 28.8145 23.276 29.1953 21.6875 29.1953C20.7565 29.1953 19.8906 29.0195 19.0898 28.668C18.2956 28.3099 17.6934 27.8184 17.2832 27.1934C16.873 26.5618 16.668 25.8457 16.668 25.0449H19.9785C19.9785 25.4811 20.1543 25.8587 20.5059 26.1777C20.8574 26.4967 21.2904 26.6562 21.8047 26.6562C22.3841 26.6562 22.8464 26.4967 23.1914 26.1777C23.5365 25.8522 23.709 25.4388 23.709 24.9375C23.709 24.2214 23.5299 23.7135 23.1719 23.4141C22.8138 23.1146 22.319 22.9648 21.6875 22.9648H20.0859V20.5137Z" fill="#EF843B"/>
<rect x="0.5" y="0.5" width="43" height="43" rx="21.5" stroke="#F3F0EB"/>
</svg>
