<svg width="44" height="44" viewBox="0 0 44 44" fill="none" xmlns="http://www.w3.org/2000/svg">
<rect x="0.5" y="0.5" width="43" height="43" rx="21.5" fill="white"/>
<path d="M27 29H17.0781V26.8516L21.6484 22.0469C22.7747 20.7643 23.3379 19.7454 23.3379 18.9902C23.3379 18.3783 23.2044 17.9128 22.9375 17.5938C22.6706 17.2747 22.2832 17.1152 21.7754 17.1152C21.2741 17.1152 20.8672 17.3301 20.5547 17.7598C20.2422 18.1829 20.0859 18.7135 20.0859 19.3516H16.7852C16.7852 18.4792 17.0033 17.6751 17.4395 16.9395C17.8757 16.1973 18.4811 15.6178 19.2559 15.2012C20.0306 14.7845 20.8965 14.5762 21.8535 14.5762C23.39 14.5762 24.5716 14.931 25.3984 15.6406C26.2318 16.3503 26.6484 17.3691 26.6484 18.6973C26.6484 19.2572 26.5443 19.804 26.3359 20.3379C26.1276 20.8652 25.8021 21.4219 25.3594 22.0078C24.9232 22.5872 24.2168 23.3652 23.2402 24.3418L21.4043 26.4609H27V29Z" fill="#EF843B"/>
<rect x="0.5" y="0.5" width="43" height="43" rx="21.5" stroke="#F3F0EB"/>
</svg>
