<svg width="49" height="48" viewBox="0 0 49 48" fill="none" xmlns="http://www.w3.org/2000/svg">
<rect opacity="0.24" x="9" y="16" width="32" height="32" rx="16" fill="#9767BD"/>
<path d="M40.8407 33.9899L45.8807 24.3399L45.5707 21.6499L34.2207 22.9799L34.6907 26.9399L40.2007 26.2899L35.1207 35.9799L35.4307 38.6299L47.4907 37.2199L47.0307 33.2599L40.8407 33.9899Z" stroke="#39353C" stroke-width="2" stroke-miterlimit="10"/>
<path d="M23.4795 30.1602L30.8095 31.9502L31.8495 27.7002L25.1995 26.0702L34.0895 18.0802L34.7995 15.1902L22.6095 12.2202L21.5695 16.4702L27.4895 17.9102L21.5195 23.2702" stroke="#39353C" stroke-width="2" stroke-miterlimit="10"/>
<path d="M12.01 27.61L18.44 13.75L17.82 10L2 12.63L2.92 18.15L10.6 16.87L4.13 30.79L4.75 34.49L21.56 31.7L20.64 26.18L12.01 27.61Z" stroke="#39353C" stroke-width="2" stroke-miterlimit="10"/>
</svg>
